<svg xmlns="http://www.w3.org/2000/svg" viewBox="0 0 1119.3 237.78"><defs><style>.cls-1{fill:#fff;}</style></defs><title>Asset 1</title><g id="Layer_2" data-name="Layer 2"><g id="Layer_1-2" data-name="Layer 1"><g id="Layer_2-2" data-name="Layer 2"><g id="Layer_1-2-2" data-name="Layer 1-2"><path class="cls-1" d="M59.65,105.62H36.59L0,0H23.35L48,77.95,72.74,0H96.1Z"/><path class="cls-1" d="M161.1,105.62H143.25c-2.53-.89-3.72-3.27-3.87-7.14a15.59,15.59,0,0,1-7.44,5.8c-6.4,2.83-9.52,2.68-12,2.68-20.38,0-30.5-7.88-30.5-23.65,0-9.67,4.17-16.81,8.93-20.38a30.27,30.27,0,0,1,9.37-4.17c7.59-1.93,11.75-2.08,18.74-2.08,8.48,0,12.79-1.79,12.79-5.5,0-4.31-3.27-8.63-12.94-8.63-6.69,0-12.94,2.53-18.45,7.44L94.76,39.42c6.69-9.07,19.19-13.83,31.54-13.83,20.83,0,32.43,11.31,32.43,26.33v47a11.75,11.75,0,0,0,1.79,6ZM139.23,69c-3.72,1.93-8.78,3.12-15.32,3.27-9.37.3-14,3.57-14,10,0,6,4.46,9.82,12,9.82,9.37,0,17.26-4.76,17.26-13.83Z"/><path class="cls-1" d="M252.73,105.62H232.06V57.12c0-9.82-4.46-14.73-13.24-14.73-12.35,0-19.64,8.48-19.64,24.4v38.83H178.5V26.93h20.68l3.12,6.84a26.24,26.24,0,0,1,19.19-8.18c9.07,0,15.62,1.49,21.72,5.8s9.52,13.09,9.52,25.73Z"/><path class="cls-1" d="M324.58,80.18l17.55,8.93c-8.78,12.5-19,17.85-34.51,17.85-11.9,0-21.72-3.87-29.6-11.75s-11.6-17.55-11.6-29c0-11.16,3.57-20.68,10.86-28.56s17.4-12,30.35-12c16.21,0,26.63,5.5,34.51,18.45l-18,8.48c-3.72-6.4-9.22-9.67-16.51-9.67-6.25,0-11.31,2.23-15,6.84a25.36,25.36,0,0,0-5.5,16.51c0,13.24,7.59,23.5,20.53,23.5C315.06,89.7,320.71,86.58,324.58,80.18Z"/><path class="cls-1" d="M406.1,80.63l15.77,8.18C414.72,100,402.38,107,387.5,107c-12.64,0-22.31-3.87-29.31-11.45s-10.41-17.4-10.41-29.16c0-20.83,11.6-40.76,39.72-40.76,12.35,0,22.16,4,29.16,12a42.26,42.26,0,0,1,10.56,28.71v7.88H367.86c2.08,10.26,8.63,15.47,19.64,15.47C396.28,89.7,402.52,86.73,406.1,80.63ZM368.46,57h38.08c-3.12-9.37-9.37-14.13-19-14.13S371.58,47.6,368.46,57Z"/><path class="cls-1" d="M505.22,199.25v37.19H483.8V130.82h48.5c11.45,0,19.64,1.64,27.37,6.4s12.2,14.13,12.2,27.82-4.31,23.06-12.2,27.82-15.92,6.4-27.37,6.4Zm0-19h27.67c11.45,0,17.55-3.72,17.55-15.17s-6.1-15.17-17.55-15.17H505.22Z"/><path class="cls-1" d="M646.09,236.44H628.24c-2.53-.89-3.72-3.27-3.87-7.14a15.59,15.59,0,0,1-7.44,5.8c-6.4,2.83-9.52,2.68-12,2.68-20.38,0-30.5-7.88-30.5-23.65,0-9.67,4.17-16.81,8.93-20.38a30.26,30.26,0,0,1,9.37-4.17c7.59-1.93,11.75-2.08,18.74-2.08,8.48,0,12.79-1.79,12.79-5.5,0-4.31-3.27-8.63-12.94-8.63-6.69,0-12.94,2.53-18.45,7.44l-13.13-10.56c6.69-9.07,19.19-13.83,31.54-13.83,20.83,0,32.43,11.31,32.43,26.33v47a11.74,11.74,0,0,0,1.79,6Zm-21.87-36.59c-3.72,1.93-8.78,3.12-15.32,3.27-9.37.3-14,3.57-14,10,0,6,4.46,9.82,12,9.82,9.37,0,17.26-4.76,17.26-13.83Z"/><path class="cls-1" d="M719.87,166.08V130.82h20.68V236.44H719.87l-2.08-5.36c-5.5,4.46-12,6.69-19.93,6.69-12.64,0-22.31-3.72-29.16-11.16s-10.26-17.26-10.26-29.45c0-12.5,3.57-22.46,10.71-29.75s16.81-11,28.71-11C706.94,156.41,714.22,159.68,719.87,166.08Zm-4.31,47.75a26,26,0,0,0-.15-33.32c-4-4.61-9.37-6.84-16.07-6.84-13.69,0-20.23,10.26-20.23,23.5s7.14,23.5,20.23,23.5C706.33,220.67,711.69,218.44,715.56,213.83Z"/><path class="cls-1" d="M874.72,236.44H854v-48.5c0-4.17-.3-6.54-1.64-9.67-1.34-3.42-4.91-5.06-10.26-5.06-8.33,0-12.5,7-12.5,21.12v42.1H808.94v-48.5q0-14.73-13.39-14.73c-10.56,0-14.28,8.18-14.28,22.31v40.91H760.63V157.75h20.68l2.53,5.5c3.72-4.61,9.52-6.84,17.26-6.84,11.45,0,19.49,4,24.1,11.9,5.5-7.88,12.79-11.9,21.87-11.9s14.58,1.34,19.78,5.65,7.88,12.79,7.88,25.88Z"/><path class="cls-1" d="M959.36,225.88c-7.74,7.88-17.55,11.9-29.6,11.9s-21.87-4-29.75-11.9a41.5,41.5,0,0,1,0-57.57c7.88-7.88,17.7-11.9,29.75-11.9s21.87,4,29.6,11.9A41.13,41.13,0,0,1,959.36,225.88Zm-29.6-5.36c13.09,0,20.68-10.12,20.68-23.36s-7.59-23.5-20.68-23.5-20.68,10.41-20.68,23.5,7.59,23.37,20.68,23.37Z"/><path class="cls-1" d="M1036.26,157.75v17.7a22,22,0,0,0-10.41-2.23c-12.5,0-19.79,10.56-19.79,26.63v36.59H985.39V157.75h20.55l3.27,7.14c5.5-5.65,11.9-8.48,19.49-8.48A21.43,21.43,0,0,1,1036.26,157.75Z"/><path class="cls-1" d="M1098.14,211.45l15.8,8.18c-7.14,11.16-19.49,18.15-34.36,18.15-12.64,0-22.31-3.87-29.31-11.45s-10.41-17.41-10.41-29.16c0-20.83,11.6-40.76,39.72-40.76,12.35,0,22.17,4,29.16,12a42.25,42.25,0,0,1,10.56,28.71V205h-59.36c2.08,10.26,8.63,15.47,19.64,15.47C1088.33,220.53,1094.57,217.55,1098.14,211.45Zm-37.63-23.65h38.08c-3.12-9.37-9.37-14.13-19-14.13S1063.63,178.43,1060.51,187.8Z"/></g></g></g></g></svg>